<svg width="16" height="16" viewBox="0 0 16 16" fill="none" xmlns="http://www.w3.org/2000/svg">
<path d="M15.6522 8.348H6.6087C6.4166 8.348 6.26086 8.19227 6.26086 8.00017C6.26086 7.80808 6.4166 7.65234 6.6087 7.65234H15.6522C15.8443 7.65234 16 7.80808 16 8.00017C16 8.19227 15.8443 8.348 15.6522 8.348Z" fill="#C41426"/>
<path d="M6.6087 9.04346C6.03241 9.04346 5.56522 8.57628 5.56522 7.99998C5.56522 7.42369 6.03241 6.95651 6.6087 6.95651H11.1304V1.73912C11.1304 0.77863 10.3518 0 9.3913 0H1.73912C0.77863 0 0 0.77863 0 1.73912V14.2609C0 15.2213 0.77863 16 1.73912 16H9.3913C10.3518 16 11.1304 15.2213 11.1304 14.2609V9.04346H6.6087V9.04346Z" fill="#C41426"/>
<path d="M12.8696 11.1308C12.6775 11.1311 12.5215 10.9757 12.5211 10.7836C12.521 10.691 12.5577 10.6021 12.6233 10.5367L15.1604 8.00035L12.6233 5.464C12.4898 5.32584 12.4937 5.10563 12.6319 4.97217C12.7667 4.84196 12.9803 4.84196 13.1152 4.97217L15.8977 7.75477C16.0335 7.89059 16.0335 8.11076 15.8977 8.24661L13.1152 11.0292C13.0499 11.0943 12.9616 11.1308 12.8696 11.1308Z" fill="#C41426"/>
</svg>
