<svg width="16" height="16" viewBox="0 0 16 16" fill="none" xmlns="http://www.w3.org/2000/svg">
<g clip-path="url(#clip0)">
<path d="M14.9089 13.0909H12.3634C10.7594 13.0909 9.45441 11.7859 9.45441 10.1819C9.45441 8.57788 10.7594 7.27287 12.3634 7.27287H14.9089C15.1099 7.27287 15.2725 7.11022 15.2725 6.90923V5.81833C15.2725 5.0558 14.681 4.43566 13.9337 4.37553L11.8454 0.727861C11.6518 0.390503 11.3393 0.149382 10.9654 0.0492583C10.5932 -0.0501832 10.2041 0.00204321 9.87096 0.195915L2.71189 4.3638H1.45453C0.652353 4.3638 0 5.01612 0 5.81833V14.5455C0 15.3476 0.652319 16 1.45453 16H13.818C14.6202 16 15.2725 15.3477 15.2725 14.5455V13.4546C15.2725 13.2536 15.1099 13.0909 14.9089 13.0909ZM12.2964 2.97987L13.0887 4.3638H9.91927L12.2964 2.97987ZM4.15732 4.3638L10.2371 0.824439C10.4015 0.728202 10.5936 0.702634 10.7772 0.751656C10.9629 0.80136 11.1178 0.921392 11.214 1.08935L11.2147 1.09068L5.5929 4.3638H4.15732Z" fill="#C41426"/>
<path d="M14.9088 8H12.3634C11.1603 8 10.1816 8.97866 10.1816 10.1818C10.1816 11.3849 11.1603 12.3635 12.3634 12.3635H14.9088C15.5104 12.3635 15.9997 11.8742 15.9997 11.2727V9.09088C15.9997 8.48933 15.5104 8 14.9088 8ZM12.3634 10.909C11.9625 10.909 11.6362 10.5827 11.6362 10.1818C11.6362 9.78087 11.9625 9.45452 12.3634 9.45452C12.7643 9.45452 13.0907 9.78087 13.0907 10.1818C13.0907 10.5827 12.7644 10.909 12.3634 10.909Z" fill="#C41426"/>
</g>
<defs>
<clipPath id="clip0">
<rect width="16" height="16" fill="white"/>
</clipPath>
</defs>
</svg>
